<svg width="301" height="299" viewBox="0 0 301 299" fill="none" xmlns="http://www.w3.org/2000/svg">
<g filter="url(#filter0_ddd_554_1605)">
<path d="M89.7207 238.275H117.809V270.882C117.809 274.588 116.329 278.143 113.695 280.764C111.061 283.384 107.489 284.857 103.765 284.857C100.04 284.857 96.4678 283.384 93.8341 280.764C91.2003 278.143 89.7207 274.588 89.7207 270.882V238.275Z" fill="#5C3B51"/>
<path d="M183.347 238.275H211.435V270.882C211.435 274.588 209.955 278.143 207.322 280.764C204.688 283.384 201.116 284.857 197.391 284.857C193.666 284.857 190.094 283.384 187.461 280.764C184.827 278.143 183.347 274.588 183.347 270.882V238.275Z" fill="#5C3B51"/>
<path d="M94.4024 98.5285C117.671 98.5285 136.534 79.7586 136.534 56.6047C136.534 33.4508 117.671 14.6808 94.4024 14.6808C71.1336 14.6808 52.2705 33.4508 52.2705 56.6047C52.2705 79.7586 71.1336 98.5285 94.4024 98.5285Z" fill="#F74B50"/>
<path d="M94.4024 28.6555C104.356 28.66 113.986 32.1708 121.586 38.5656C129.187 44.9605 134.267 53.8264 135.926 63.592C136.318 61.2831 136.522 58.9463 136.534 56.6047C136.534 45.4858 132.095 34.8223 124.194 26.9601C116.293 19.0978 105.576 14.6808 94.4024 14.6808C83.2283 14.6808 72.5119 19.0978 64.6106 26.9601C56.7094 34.8223 52.2705 45.4858 52.2705 56.6047C52.283 58.9463 52.4866 61.2831 52.8791 63.592C54.538 53.8264 59.6178 44.9605 67.2183 38.5656C74.8188 32.1708 84.4491 28.66 94.4024 28.6555Z" fill="#D13F44"/>
<path d="M206.754 98.5285C230.023 98.5285 248.886 79.7586 248.886 56.6047C248.886 33.4508 230.023 14.6808 206.754 14.6808C183.485 14.6808 164.622 33.4508 164.622 56.6047C164.622 79.7586 183.485 98.5285 206.754 98.5285Z" fill="#F74B50"/>
<path d="M206.754 28.6555C216.707 28.66 226.338 32.1708 233.938 38.5656C241.538 44.9605 246.618 53.8264 248.277 63.592C248.67 61.2831 248.873 58.9463 248.886 56.6047C248.886 45.4858 244.447 34.8223 236.546 26.9601C228.644 19.0978 217.928 14.6808 206.754 14.6808C195.58 14.6808 184.863 19.0978 176.962 26.9601C169.061 34.8223 164.622 45.4858 164.622 56.6047C164.635 58.9463 164.838 61.2831 165.231 63.592C166.89 53.8264 171.969 44.9605 179.57 38.5656C187.17 32.1708 196.801 28.66 206.754 28.6555Z" fill="#D13F44"/>
<path d="M150.578 261.566C212.628 261.566 262.93 211.512 262.93 149.769C262.93 88.025 212.628 37.9719 150.578 37.9719C88.5281 37.9719 38.2266 88.025 38.2266 149.769C38.2266 211.512 88.5281 261.566 150.578 261.566Z" fill="#9288E0"/>
<path d="M150.578 242.933C202.286 242.933 244.204 201.222 244.204 149.769C244.204 98.3156 202.286 56.6047 150.578 56.6047C98.8696 56.6047 56.9517 98.3156 56.9517 149.769C56.9517 201.222 98.8696 242.933 150.578 242.933Z" fill="#EA7C69"/>
<path d="M150.578 70.5793C174.175 70.6071 196.89 79.4998 214.181 95.4781C231.471 111.457 242.06 133.342 243.83 156.756C243.83 154.427 244.204 152.098 244.204 149.769C244.204 125.06 234.34 101.363 216.782 83.8918C199.223 66.4201 175.409 56.6047 150.578 56.6047C125.747 56.6047 101.933 66.4201 84.3742 83.8918C66.8158 101.363 56.9517 125.06 56.9517 149.769C56.9517 152.144 56.9517 154.427 57.3262 156.756C59.0959 133.342 69.6852 111.457 86.9754 95.4781C104.266 79.4998 126.981 70.6071 150.578 70.5793Z" fill="#2D95B5"/>
<path d="M267.611 149.769C267.624 125.544 260.012 101.924 245.843 82.2248C250.905 74.6316 253.593 65.7165 253.567 56.6047C253.504 46.302 250.01 36.3107 243.632 28.1945C237.254 20.0783 228.352 14.2952 218.319 11.75C208.286 9.20486 197.688 10.0414 188.184 14.1286C178.679 18.2159 170.805 25.3232 165.792 34.3385C155.696 32.9723 145.46 32.9723 135.364 34.3385C132.444 28.6487 128.38 23.6174 123.423 19.5572C118.466 15.4971 112.723 12.4949 106.55 10.7373C100.378 8.97968 93.908 8.50425 87.543 9.34055C81.178 10.1769 75.054 12.307 69.5515 15.5986C64.049 18.8902 59.2858 23.2728 55.5579 28.4741C51.8301 33.6753 49.2172 39.584 47.8818 45.8328C46.5464 52.0816 46.5171 58.537 47.7955 64.7976C49.074 71.0582 51.6329 76.9902 55.3133 82.2248C46.2659 94.8709 39.8507 109.189 36.4448 124.338C33.0389 139.487 32.7111 155.161 35.4806 170.437C38.2502 185.714 44.0612 200.286 52.5721 213.295C61.0829 226.305 72.1218 237.49 85.0397 246.194V270.882C85.0397 275.824 87.0125 280.563 90.5242 284.057C94.0359 287.552 98.7987 289.515 103.765 289.515C108.731 289.515 113.494 287.552 117.006 284.057C120.517 280.563 122.49 275.824 122.49 270.882V262.823C140.938 267.362 160.218 267.362 178.666 262.823V270.882C178.666 275.824 180.639 280.563 184.151 284.057C187.662 287.552 192.425 289.515 197.391 289.515C202.358 289.515 207.12 287.552 210.632 284.057C214.144 280.563 216.117 275.824 216.117 270.882V246.194C231.966 235.533 244.948 221.169 253.925 204.359C262.903 187.549 267.602 168.805 267.611 149.769ZM206.754 19.3391C216.686 19.3391 226.212 23.2652 233.235 30.2539C240.259 37.2426 244.204 46.7212 244.204 56.6047C244.191 62.8212 242.58 68.9309 239.523 74.3524C222.986 54.9914 200.55 41.5307 175.623 36.0154C179.031 30.8998 183.656 26.7009 189.086 23.7917C194.517 20.8825 200.586 19.353 206.754 19.3391ZM56.9518 56.6047C56.979 48.622 59.5815 40.8589 64.3762 34.4587C69.1709 28.0586 75.9042 23.3596 83.5846 21.0538C91.2651 18.748 99.4866 18.9573 107.038 21.6508C114.59 24.3443 121.074 29.3797 125.533 36.0154C100.606 41.5307 78.1702 54.9914 61.6331 74.3524C58.5763 68.9309 56.9648 62.8212 56.9518 56.6047ZM113.128 270.882C113.128 273.353 112.141 275.723 110.385 277.47C108.629 279.217 106.248 280.198 103.765 280.198C101.282 280.198 98.9004 279.217 97.1446 277.47C95.3887 275.723 94.4023 273.353 94.4023 270.882V251.877C100.388 255.156 106.654 257.899 113.128 260.075V270.882ZM206.754 270.882C206.754 273.353 205.768 275.723 204.012 277.47C202.256 279.217 199.874 280.198 197.391 280.198C194.908 280.198 192.527 279.217 190.771 277.47C189.015 275.723 188.029 273.353 188.029 270.882V260.075C194.502 257.899 200.769 255.156 206.754 251.877V270.882ZM150.578 256.907C129.283 256.907 108.466 250.624 90.7597 238.851C73.0534 227.079 59.253 210.346 51.1037 190.769C42.9544 171.192 40.8222 149.65 44.9767 128.867C49.1312 108.084 59.3858 88.9939 74.4437 74.0103C89.5017 59.0266 108.687 48.8227 129.573 44.6887C150.459 40.5547 172.108 42.6764 191.782 50.7855C211.456 58.8946 228.272 72.6268 240.103 90.2457C251.934 107.865 258.248 128.579 258.248 149.769C258.248 178.184 246.905 205.435 226.712 225.527C206.52 245.62 179.134 256.907 150.578 256.907Z" fill="#2C2A3D"/>
<path d="M150.578 51.9465C131.135 51.9465 112.128 57.6836 95.9614 68.4325C79.7948 79.1813 67.1945 94.4591 59.7538 112.334C52.3131 130.208 50.3663 149.877 54.1595 168.853C57.9527 187.829 67.3156 205.259 81.0642 218.94C94.8128 232.62 112.33 241.937 131.399 245.711C150.469 249.486 170.236 247.549 188.199 240.145C206.162 232.741 221.516 220.203 232.318 204.116C243.12 188.029 248.886 169.116 248.886 149.769C248.886 123.825 238.528 98.9432 220.092 80.5979C201.656 62.2527 176.651 51.9465 150.578 51.9465ZM150.578 238.275C132.987 238.275 115.79 233.084 101.163 223.359C86.5361 213.634 75.1358 199.811 68.4037 183.638C61.6717 167.466 59.9103 149.671 63.3422 132.502C66.7742 115.334 75.2454 99.5634 87.6846 87.1856C100.124 74.8079 115.972 66.3785 133.226 62.9635C150.48 59.5485 168.363 61.3012 184.616 68C200.869 74.6988 214.76 86.0428 224.533 100.598C234.307 115.152 239.523 132.264 239.523 149.769C239.523 173.242 230.152 195.754 213.472 212.352C196.791 228.95 174.168 238.275 150.578 238.275Z" fill="#2C2A3D"/>
<path d="M197.391 145.111H155.259V103.187C155.259 101.951 154.766 100.766 153.888 99.8929C153.01 99.0193 151.819 98.5285 150.578 98.5285C149.336 98.5285 148.146 99.0193 147.268 99.8929C146.39 100.766 145.896 101.951 145.896 103.187V149.769C145.896 151.004 146.39 152.189 147.268 153.063C148.146 153.936 149.336 154.427 150.578 154.427H197.391C198.633 154.427 199.823 153.936 200.701 153.063C201.579 152.189 202.072 151.004 202.072 149.769C202.072 148.533 201.579 147.348 200.701 146.475C199.823 145.601 198.633 145.111 197.391 145.111Z" fill="#2C2A3D"/>
<path d="M150.578 83.3428C151.819 83.3428 153.01 82.852 153.888 81.9784C154.766 81.1048 155.259 79.92 155.259 78.6846V70.5793C155.259 69.3439 154.766 68.159 153.888 67.2854C153.01 66.4119 151.819 65.9211 150.578 65.9211C149.336 65.9211 148.146 66.4119 147.268 67.2854C146.39 68.159 145.896 69.3439 145.896 70.5793V78.6846C145.896 79.92 146.39 81.1048 147.268 81.9784C148.146 82.852 149.336 83.3428 150.578 83.3428Z" fill="#2C2A3D"/>
<path d="M150.578 216.195C149.336 216.195 148.146 216.685 147.268 217.559C146.39 218.433 145.896 219.617 145.896 220.853V228.958C145.896 230.194 146.39 231.378 147.268 232.252C148.146 233.126 149.336 233.616 150.578 233.616C151.819 233.616 153.01 233.126 153.888 232.252C154.766 231.378 155.259 230.194 155.259 228.958V220.853C155.259 219.617 154.766 218.433 153.888 217.559C153.01 216.685 151.819 216.195 150.578 216.195Z" fill="#2C2A3D"/>
<path d="M114.86 78.8709C114.239 77.7961 113.214 77.0106 112.012 76.6874C110.809 76.3642 109.526 76.5296 108.446 77.1473C107.366 77.7651 106.577 78.7844 106.252 79.9813C105.927 81.1781 106.093 82.4543 106.714 83.5291L110.834 90.563C111.242 91.267 111.829 91.8524 112.535 92.261C113.241 92.6696 114.043 92.8872 114.86 92.8921C115.684 92.8836 116.491 92.6586 117.2 92.2399C118.271 91.6254 119.054 90.6144 119.379 89.4276C119.703 88.2408 119.543 86.9744 118.932 85.9048L114.86 78.8709Z" fill="#2C2A3D"/>
<path d="M190.322 208.975C189.675 207.961 188.658 207.235 187.485 206.949C186.313 206.663 185.074 206.839 184.029 207.441C182.984 208.042 182.212 209.022 181.876 210.176C181.539 211.33 181.664 212.568 182.224 213.633L186.296 220.667C186.917 221.741 187.942 222.527 189.144 222.85C190.347 223.173 191.63 223.008 192.71 222.39C193.79 221.772 194.579 220.753 194.904 219.556C195.229 218.359 195.063 217.083 194.442 216.008L190.322 208.975Z" fill="#2C2A3D"/>
<path d="M91.0786 110.221L84.0098 106.121C82.9296 105.504 81.6471 105.338 80.4444 105.661C79.2416 105.985 78.2172 106.77 77.5964 107.845C76.9756 108.92 76.8093 110.196 77.1342 111.393C77.459 112.59 78.2483 113.609 79.3285 114.227L86.3973 118.279C87.4671 118.836 88.7119 118.96 89.8715 118.625C91.0311 118.291 92.0159 117.523 92.6201 116.483C93.2243 115.443 93.4013 114.21 93.1141 113.043C92.8268 111.877 92.0975 110.865 91.0786 110.221Z" fill="#2C2A3D"/>
<path d="M221.828 185.311L214.759 181.258C213.684 180.651 212.411 180.491 211.218 180.814C210.026 181.137 209.01 181.916 208.392 182.982C207.778 184.046 207.61 185.308 207.926 186.494C208.241 187.68 209.015 188.695 210.077 189.317L217.146 193.416C217.681 193.722 218.271 193.92 218.883 193.999C219.495 194.078 220.116 194.036 220.712 193.876C221.307 193.716 221.865 193.441 222.354 193.066C222.843 192.692 223.252 192.225 223.56 191.693C223.867 191.16 224.066 190.573 224.145 189.964C224.225 189.356 224.183 188.737 224.022 188.145C223.861 187.552 223.584 186.997 223.208 186.511C222.831 186.024 222.362 185.617 221.828 185.311Z" fill="#2C2A3D"/>
<path d="M83.8226 149.769C83.8226 148.533 83.3294 147.348 82.4515 146.475C81.5735 145.601 80.3828 145.111 79.1413 145.111H70.9958C69.7542 145.111 68.5635 145.601 67.6856 146.475C66.8077 147.348 66.3145 148.533 66.3145 149.769C66.3145 151.004 66.8077 152.189 67.6856 153.063C68.5635 153.936 69.7542 154.427 70.9958 154.427H79.1413C80.3828 154.427 81.5735 153.936 82.4515 153.063C83.3294 152.189 83.8226 151.004 83.8226 149.769Z" fill="#2C2A3D"/>
<path d="M230.16 145.111H222.015C220.773 145.111 219.583 145.601 218.705 146.475C217.827 147.348 217.333 148.533 217.333 149.769C217.333 151.004 217.827 152.189 218.705 153.063C219.583 153.936 220.773 154.427 222.015 154.427H230.16C231.402 154.427 232.593 153.936 233.471 153.063C234.348 152.189 234.842 151.004 234.842 149.769C234.842 148.533 234.348 147.348 233.471 146.475C232.593 145.601 231.402 145.111 230.16 145.111Z" fill="#2C2A3D"/>
<path d="M86.3973 181.258L79.3285 185.311C78.2483 185.929 77.459 186.948 77.1342 188.145C76.8093 189.342 76.9756 190.618 77.5964 191.693C78.2172 192.767 79.2416 193.553 80.4444 193.876C81.6471 194.199 82.9296 194.034 84.0098 193.416L91.0786 189.317C92.1414 188.695 92.9145 187.68 93.2301 186.494C93.5456 185.308 93.3781 184.046 92.7638 182.982C92.1463 181.916 91.1303 181.137 89.9376 180.814C88.7448 180.491 87.4722 180.651 86.3973 181.258Z" fill="#2C2A3D"/>
<path d="M212.418 118.885C213.238 118.89 214.045 118.682 214.759 118.279L221.828 114.227C222.908 113.609 223.697 112.59 224.022 111.393C224.347 110.196 224.181 108.92 223.56 107.845C222.939 106.77 221.915 105.985 220.712 105.661C219.509 105.338 218.227 105.504 217.146 106.121L210.078 110.221C209.199 110.739 208.515 111.53 208.13 112.472C207.745 113.413 207.68 114.454 207.945 115.436C208.21 116.418 208.791 117.286 209.599 117.909C210.406 118.532 211.397 118.874 212.418 118.885Z" fill="#2C2A3D"/>
<path d="M117.2 207.298C116.131 206.686 114.863 206.52 113.67 206.834C112.478 207.148 111.459 207.917 110.834 208.974L106.714 216.008C106.093 217.083 105.927 218.359 106.252 219.556C106.577 220.753 107.366 221.772 108.446 222.39C109.526 223.008 110.809 223.173 112.012 222.85C113.214 222.527 114.239 221.741 114.86 220.667L118.932 213.633C119.543 212.563 119.703 211.297 119.379 210.11C119.054 208.923 118.271 207.912 117.2 207.298Z" fill="#2C2A3D"/>
<path d="M183.956 92.2399C184.665 92.6586 185.472 92.8836 186.296 92.8921C187.113 92.8872 187.915 92.6696 188.621 92.261C189.327 91.8524 189.914 91.267 190.322 90.563L194.442 83.5291C194.749 82.9969 194.948 82.4097 195.028 81.8009C195.107 81.1922 195.065 80.5739 194.904 79.9813C194.743 79.3887 194.467 78.8334 194.09 78.3472C193.714 77.8609 193.245 77.4532 192.71 77.1474C192.175 76.8415 191.585 76.6435 190.973 76.5645C190.361 76.4856 189.74 76.5274 189.144 76.6874C188.549 76.8475 187.991 77.1227 187.502 77.4973C187.014 77.872 186.604 78.3387 186.296 78.8709L182.224 85.9048C181.613 86.9744 181.453 88.2408 181.777 89.4276C182.102 90.6145 182.885 91.6254 183.956 92.2399Z" fill="#2C2A3D"/>
</g>
<defs>
<filter id="filter0_ddd_554_1605" x="-3.22412" y="0.706238" width="330.604" height="306.125" filterUnits="userSpaceOnUse" color-interpolation-filters="sRGB">
<feFlood flood-opacity="0" result="BackgroundImageFix"/>
<feColorMatrix in="SourceAlpha" type="matrix" values="0 0 0 0 0 0 0 0 0 0 0 0 0 0 0 0 0 0 127 0" result="hardAlpha"/>
<feOffset dy="4"/>
<feGaussianBlur stdDeviation="2"/>
<feComposite in2="hardAlpha" operator="out"/>
<feColorMatrix type="matrix" values="0 0 0 0 0 0 0 0 0 0 0 0 0 0 0 0 0 0 0.25 0"/>
<feBlend mode="normal" in2="BackgroundImageFix" result="effect1_dropShadow_554_1605"/>
<feColorMatrix in="SourceAlpha" type="matrix" values="0 0 0 0 0 0 0 0 0 0 0 0 0 0 0 0 0 0 127 0" result="hardAlpha"/>
<feOffset dx="23" dy="4"/>
<feGaussianBlur stdDeviation="2"/>
<feComposite in2="hardAlpha" operator="out"/>
<feColorMatrix type="matrix" values="0 0 0 0 0 0 0 0 0 0 0 0 0 0 0 0 0 0 0.25 0"/>
<feBlend mode="normal" in2="effect1_dropShadow_554_1605" result="effect2_dropShadow_554_1605"/>
<feColorMatrix in="SourceAlpha" type="matrix" values="0 0 0 0 0 0 0 0 0 0 0 0 0 0 0 0 0 0 127 0" result="hardAlpha"/>
<feOffset dy="4"/>
<feGaussianBlur stdDeviation="2"/>
<feComposite in2="hardAlpha" operator="out"/>
<feColorMatrix type="matrix" values="0 0 0 0 0 0 0 0 0 0 0 0 0 0 0 0 0 0 0.25 0"/>
<feBlend mode="normal" in2="effect2_dropShadow_554_1605" result="effect3_dropShadow_554_1605"/>
<feBlend mode="normal" in="SourceGraphic" in2="effect3_dropShadow_554_1605" result="shape"/>
</filter>
</defs>
</svg>
