<svg width="31" height="27" viewBox="0 0 31 27" fill="none" xmlns="http://www.w3.org/2000/svg">
<path d="M30.9995 0.26625L30.2172 5.88921C28.6525 5.75768 27.3812 6.02075 26.4033 6.6784C25.4254 7.30318 24.7408 8.2239 24.3497 9.44056C23.9911 10.6243 23.9259 12.0054 24.1541 13.5838H30.9995V27H17.6998V13.5838C17.6998 8.84867 18.7918 5.26444 20.9759 2.83111C23.1599 0.3649 26.5011 -0.490055 30.9995 0.26625ZM13.2992 0.26625L12.5169 5.88921C10.9522 5.75768 9.6809 6.02075 8.70298 6.6784C7.72506 7.30318 7.04052 8.2239 6.64935 9.44056C6.29078 10.6243 6.22559 12.0054 6.45377 13.5838H13.2992V27H-0.000488281V13.5838C-0.000488281 8.84867 1.09152 5.26444 3.27554 2.83111C5.45955 0.3649 8.80077 -0.490055 13.2992 0.26625Z" fill="#FF7F5C"/>
</svg>
