<svg width="100" height="122" viewBox="0 0 100 122" fill="none" xmlns="http://www.w3.org/2000/svg">
<path d="M34.9171 0.817076C30.3328 0.817076 25.7933 1.72002 21.558 3.47437C17.3226 5.22872 13.4742 7.8001 10.2326 11.0417C6.99102 14.2833 4.41963 18.1317 2.66529 22.367C0.910936 26.6024 0.0079897 31.1418 0.0079895 35.7262L34.9171 35.7262L34.9171 0.817076Z" fill="#9288E0"/>
<path d="M64.0987 52.1818C59.5144 52.1818 54.975 53.0848 50.7396 54.8391C46.5042 56.5935 42.6559 59.1648 39.4143 62.4065C36.1727 65.6481 33.6013 69.4964 31.8469 73.7318C30.0926 77.9671 29.1896 82.5066 29.1896 87.0909L64.0987 87.0909L64.0987 52.1818Z" fill="#2C2A3D"/>
</svg>
