<svg width="32" height="32" viewBox="0 0 32 32" fill="none" xmlns="http://www.w3.org/2000/svg">
<path d="M15.8696 18.9919C17.4501 18.9919 18.7313 17.7106 18.7313 16.1301C18.7313 14.5496 17.4501 13.2683 15.8696 13.2683C14.2891 13.2683 13.0078 14.5496 13.0078 16.1301C13.0078 17.7106 14.2891 18.9919 15.8696 18.9919Z" fill="black"/>
<path d="M19.4472 9.10571H12.2928C11.2522 9.10571 10.3416 9.43092 9.75626 10.0163C9.1709 10.6016 8.8457 11.5122 8.8457 12.5529V19.7073C8.8457 20.748 9.1709 21.6586 9.8213 22.309C10.4717 22.8943 11.3172 23.2195 12.3579 23.2195H19.4472C20.4878 23.2195 21.3984 22.8943 21.9837 22.309C22.6341 21.7236 22.9593 20.813 22.9593 19.7724V12.6179C22.9593 11.5773 22.6341 10.7317 22.0488 10.0813C21.3984 9.43092 20.5529 9.10571 19.4472 9.10571ZM15.87 20.5529C13.3985 20.5529 11.4473 18.5366 11.4473 16.1301C11.4473 13.6586 13.4635 11.7073 15.87 11.7073C18.2765 11.7073 20.3577 13.6586 20.3577 16.1301C20.3577 18.6016 18.3415 20.5529 15.87 20.5529ZM20.4878 12.5529C19.9025 12.5529 19.4472 12.0976 19.4472 11.5122C19.4472 10.9269 19.9025 10.4716 20.4878 10.4716C21.0732 10.4716 21.5285 10.9269 21.5285 11.5122C21.5285 12.0976 21.0732 12.5529 20.4878 12.5529Z" fill="black"/>
<path d="M15.9998 0C7.15437 0 0 7.15447 0 16C0 24.8455 7.15437 32 15.9998 32C24.8452 32 31.9996 24.8455 31.9996 16C32.0646 7.15447 24.8452 0 15.9998 0ZM24.52 19.7724C24.52 21.2683 23.9997 22.5691 23.0891 23.4797C22.1786 24.3902 20.8778 24.8455 19.4469 24.8455H12.3576C10.9267 24.8455 9.62589 24.3902 8.71533 23.4797C7.73973 22.5691 7.28445 21.2683 7.28445 19.7724V12.6179C7.28445 9.62602 9.30069 7.54471 12.3576 7.54471H19.5119C21.0078 7.54471 22.2436 8.06504 23.1542 8.97561C24.0647 9.88618 24.52 11.122 24.52 12.6179V19.7724Z" fill="black"/>
</svg>
