<svg width="54" height="54" viewBox="0 0 54 54" fill="none" xmlns="http://www.w3.org/2000/svg">
<g clip-path="url(#clip0_934_3500)">
<path d="M27.0002 0C15.6157 0 6.35303 9.26271 6.35303 20.6472V39.7057C6.35303 42.3333 8.49042 44.4707 11.1177 44.4707C13.7453 44.4707 15.8827 42.3333 15.8827 39.7057V23.8236C15.8827 21.1963 13.7453 19.0589 11.1177 19.0589C10.5829 19.0589 10.077 19.1673 9.59619 19.3304C10.2739 10.3116 17.8125 3.17642 27.0002 3.17642C36.183 3.17642 43.7195 10.305 44.4034 19.3177C43.9254 19.1541 43.4166 19.0589 42.8827 19.0589C40.2551 19.0589 38.1177 21.1963 38.1177 23.8236V39.7057C38.1177 42.3333 40.2551 44.4707 42.8827 44.4707C43.4422 44.4707 43.9716 44.3562 44.4709 44.1782V46.0589C44.4709 46.9352 43.7574 47.6472 42.8827 47.6472H31.4723C30.8144 45.8023 29.0679 44.4707 27.0002 44.4707C24.3729 44.4707 22.2355 46.6081 22.2355 49.2354C22.2355 51.8626 24.3729 54 27.0002 54C29.0679 54 30.8144 52.668 31.4723 50.8236H42.8827C45.5099 50.8236 47.6473 48.6862 47.6473 46.0589C47.6473 36.5058 47.6473 30.2106 47.6473 20.6472C47.6473 9.26271 38.3846 0 27.0002 0V0Z" fill="#7063D6"/>
<path d="M50.8237 22.5279V41.0014C52.6682 40.3439 54.0002 38.5975 54.0002 36.5293V27C54.0002 24.9323 52.6682 23.1858 50.8237 22.5279Z" fill="#7063D6"/>
<path d="M0 27V36.5293C0 38.5975 1.33195 40.3439 3.17642 41.0014V22.5279C1.33195 23.1858 0 24.9323 0 27Z" fill="#7063D6"/>
</g>
<defs>
<clipPath id="clip0_934_3500">
<rect width="54" height="54" fill="white"/>
</clipPath>
</defs>
</svg>
