<svg width="60" height="106" viewBox="0 0 60 106" fill="none" xmlns="http://www.w3.org/2000/svg">
<g filter="url(#filter0_ddd_554_1783)">
<path d="M4.94482 50.8375L4.975 50.873V50.9084L5.01494 51.0023C5.22874 51.5045 5.45284 51.9042 5.79427 52.3052L42.5943 95.5335C43.4907 96.5864 44.7306 97.119 45.975 97.119C47.23 97.119 48.3451 96.5796 49.3123 95.6959L49.3354 95.6748L49.3557 95.6509L53.0557 91.3046L53.0606 91.2989L53.0652 91.2931C54.807 89.1192 54.8194 85.68 53.0557 83.6083L23.3358 48.6969L53.4509 14.3687L53.4509 14.3687L53.4557 14.3631C55.3139 12.1803 55.3124 8.85889 53.5652 6.67823L53.5653 6.67819L53.5599 6.67179L49.86 2.208L49.86 2.20797L49.8557 2.20297C48.9823 1.17702 47.7519 0.5 46.475 0.5C45.1248 0.5 43.9879 1.03699 43.0963 2.08308C43.0956 2.08389 43.095 2.0847 43.0943 2.08551L5.89823 44.7218L5.8982 44.7218L5.89427 44.7264C5.35686 45.3577 4.93598 46.2131 4.71305 47.0694C4.5845 47.2764 4.57531 47.4801 4.57494 47.5939C4.47206 48.2264 4.47641 48.8547 4.57996 49.5845L4.58473 49.6181L4.59399 49.6508C4.63119 49.7819 4.65165 49.8912 4.674 50.0107C4.67718 50.0277 4.6804 50.0449 4.68371 50.0624C4.70911 50.1966 4.74194 50.3609 4.81494 50.5324L4.91494 50.7673L4.94482 50.8375ZM4.99015 50.8917C4.9935 50.8976 4.99247 50.8972 4.98977 50.8911L4.99015 50.8917ZM7.775 49.1318H7.57764C7.5754 49.1113 7.575 49.0885 7.575 49.0444C7.575 48.896 7.55859 48.7286 7.54639 48.6042C7.54212 48.5606 7.53836 48.5223 7.53601 48.4919C7.52548 48.3558 7.53375 48.3091 7.53514 48.3012C7.5354 48.2998 7.53542 48.2996 7.53506 48.3005L7.575 48.2067V48.1047V47.9872V47.9872V47.9871V47.9871V47.9871V47.9871V47.987V47.987V47.9869V47.9869V47.9869V47.9868V47.9868V47.9868V47.9867V47.9867V47.9867V47.9866V47.9866V47.9865V47.9865V47.9865V47.9864V47.9864V47.9863V47.9862V47.9862V47.9861V47.9861V47.9861V47.986V47.986V47.986V47.9859V47.9859V47.9859V47.9858V47.9858V47.9858V47.9857V47.9857V47.9857V47.9856V47.9856V47.9855V47.9855V47.9855V47.9854V47.9854V47.9853V47.9853V47.9852V47.9852V47.9851V47.9851V47.9851V47.985V47.985V47.9849V47.9849V47.9848V47.9848V47.9847V47.9846V47.9846V47.9845V47.9845V47.9844V47.9844V47.9843V47.9843V47.9842V47.9841V47.9841V47.984V47.9839V47.9839V47.9838V47.9838V47.9837V47.9836V47.9836V47.9835V47.9834V47.9833V47.9833V47.9832V47.9831V47.9831V47.983V47.9829V47.9828V47.9828V47.9827V47.9826V47.9825V47.9824V47.9824V47.9823V47.9822V47.9821V47.982V47.9819V47.9818V47.9818V47.9817V47.9816V47.9815V47.9814V47.9813V47.9812V47.9811V47.981V47.9809V47.9808V47.9807V47.9806V47.9805V47.9804V47.9803V47.9802V47.9801V47.98V47.9799V47.9798V47.9797V47.9796V47.9794V47.9793V47.9792V47.9791V47.979V47.9789V47.9787V47.9786V47.9785V47.9784V47.9783V47.9781V47.978V47.9779V47.9778V47.9776V47.9775V47.9774V47.9772V47.9771V47.977V47.9768V47.9767V47.9766V47.9764V47.9763V47.9761V47.976V47.9758V47.9757V47.9756V47.9754V47.9753V47.9751V47.975V47.9748V47.9746V47.9745V47.9743V47.9742V47.974V47.9739V47.9737V47.9735V47.9734V47.9732V47.973V47.9729V47.9727V47.9725V47.9724V47.9722V47.972V47.9718V47.9716V47.9715V47.9713V47.9711V47.9709V47.9707V47.9705V47.9704V47.9702V47.97V47.9698V47.9696V47.9694V47.9692V47.969V47.9688V47.9686V47.9684V47.9682V47.968V47.9678V47.9676V47.9674V47.9672V47.9669V47.9667V47.9665V47.9663V47.9661V47.9659V47.9656V47.9654V47.9652V47.965V47.9647V47.9645V47.9643V47.964V47.9638V47.9636V47.9633V47.9631V47.9629V47.9626V47.9624V47.9621V47.9619V47.9616V47.9614V47.9611V47.9609V47.9606V47.9604V47.9601V47.9599V47.9596V47.9593V47.9591V47.9588V47.9585V47.9583V47.958V47.9577V47.9574V47.9572V47.9569V47.9566V47.9563V47.956V47.9558V47.9555V47.9552V47.9549V47.9546V47.9543V47.954V47.9537V47.9534V47.9531V47.9528V47.9525V47.9522V47.9519V47.9516V47.9513V47.951V47.9506V47.9503V47.95V47.9497V47.9494V47.949V47.9487V47.9484V47.9481V47.9477V47.9474V47.947V47.9467V47.9464V47.946V47.9457V47.9453V47.945V47.9446V47.9443V47.9439V47.9436V47.9432V47.9429V47.9425V47.9422V47.9418V47.9414V47.9411V47.9407V47.9403V47.9399V47.9396V47.9392V47.9388V47.9384V47.938V47.9376V47.9373V47.9369V47.9365V47.9361V47.9357V47.9353V47.9349V47.9345V47.9341V47.9337V47.9333V47.9329V47.9324V47.932V47.9316V47.9312V47.9308V47.9303V47.9299V47.9295V47.9291V47.9286V47.9282V47.9278V47.9273V47.9269V47.9264V47.926V47.9256V47.9251V47.925C7.65698 47.5774 7.8084 47.3102 8.05378 47.0215C8.05443 47.0207 8.05508 47.0199 8.05573 47.0192L45.2518 4.38286L45.2632 4.36975L45.2737 4.35588C45.5847 3.94486 45.9906 3.76126 46.3875 3.76126C46.787 3.76126 47.227 3.94803 47.5923 4.37595C47.593 4.37673 47.5936 4.3775 47.5943 4.37828L51.2901 8.83703L51.3015 8.85084L51.3139 8.86379C51.6577 9.22282 51.85 9.76523 51.85 10.3387C51.85 10.9122 51.6577 11.4546 51.3139 11.8136L51.3059 11.8219L51.2984 11.8306L19.4984 48.2457L19.2157 48.5694L19.4933 48.8975L50.7933 85.8999L50.8032 85.9117L50.8139 85.9228C51.5186 86.6586 51.5453 88.0121 50.7943 88.8944L47.0943 93.2407L47.085 93.2516L47.0763 93.2631C46.7653 93.6741 46.3594 93.8577 45.9625 93.8577C45.5623 93.8577 45.1214 93.6702 44.7557 93.2407L9.06327 51.3135L8.07042 50.0305L8.01139 49.9543L7.92822 49.9054C7.92446 49.9032 7.90237 49.8891 7.86472 49.8272C7.83531 49.7788 7.80809 49.7218 7.775 49.6462V49.6318V49.1318Z" fill="#EA7C69" stroke="#EA7C69"/>
</g>
<defs>
<filter id="filter0_ddd_554_1783" x="0" y="0" width="59.3628" height="105.619" filterUnits="userSpaceOnUse" color-interpolation-filters="sRGB">
<feFlood flood-opacity="0" result="BackgroundImageFix"/>
<feColorMatrix in="SourceAlpha" type="matrix" values="0 0 0 0 0 0 0 0 0 0 0 0 0 0 0 0 0 0 127 0" result="hardAlpha"/>
<feOffset dy="4"/>
<feGaussianBlur stdDeviation="2"/>
<feComposite in2="hardAlpha" operator="out"/>
<feColorMatrix type="matrix" values="0 0 0 0 0 0 0 0 0 0 0 0 0 0 0 0 0 0 0.25 0"/>
<feBlend mode="normal" in2="BackgroundImageFix" result="effect1_dropShadow_554_1783"/>
<feColorMatrix in="SourceAlpha" type="matrix" values="0 0 0 0 0 0 0 0 0 0 0 0 0 0 0 0 0 0 127 0" result="hardAlpha"/>
<feOffset dy="4"/>
<feGaussianBlur stdDeviation="2"/>
<feComposite in2="hardAlpha" operator="out"/>
<feColorMatrix type="matrix" values="0 0 0 0 0 0 0 0 0 0 0 0 0 0 0 0 0 0 0.25 0"/>
<feBlend mode="normal" in2="effect1_dropShadow_554_1783" result="effect2_dropShadow_554_1783"/>
<feColorMatrix in="SourceAlpha" type="matrix" values="0 0 0 0 0 0 0 0 0 0 0 0 0 0 0 0 0 0 127 0" result="hardAlpha"/>
<feOffset dy="4"/>
<feGaussianBlur stdDeviation="2"/>
<feComposite in2="hardAlpha" operator="out"/>
<feColorMatrix type="matrix" values="0 0 0 0 0 0 0 0 0 0 0 0 0 0 0 0 0 0 0.25 0"/>
<feBlend mode="normal" in2="effect2_dropShadow_554_1783" result="effect3_dropShadow_554_1783"/>
<feBlend mode="normal" in="SourceGraphic" in2="effect3_dropShadow_554_1783" result="shape"/>
</filter>
</defs>
</svg>
