<svg width="60" height="106" viewBox="0 0 60 106" fill="none" xmlns="http://www.w3.org/2000/svg">
<g filter="url(#filter0_ddd_554_1785)">
<path d="M54.7104 47.1937L54.6805 47.1582L54.6806 47.1229L54.641 47.0286C54.429 46.5248 54.2063 46.1235 53.8661 45.7198L17.199 2.21172C16.3059 1.15194 15.0667 0.609697 13.821 0.599319C12.5647 0.588852 11.4458 1.11833 10.4733 1.99331L10.45 2.01424L10.4296 2.03792L6.70482 6.35063L6.69997 6.35625L6.69528 6.36202C4.94108 8.52028 4.91355 11.9579 6.67106 14.0433L36.2831 49.1801L5.97165 83.2348L5.97161 83.2348L5.96676 83.2404C4.09594 85.4065 4.08287 88.7266 5.82341 90.9207L5.82335 90.9208L5.82864 90.9272L9.51476 95.4191L9.51472 95.4191L9.51896 95.4241C10.3892 96.4568 11.6183 97.1433 12.8965 97.1539C14.2482 97.1652 15.3889 96.6383 16.2864 95.6002C16.2871 95.5995 16.2877 95.5987 16.2884 95.5979L53.7287 53.2988L53.7287 53.2988L53.7327 53.2943C54.2737 52.6679 54.699 51.8165 54.9261 50.9625C55.0558 50.7566 55.0659 50.5529 55.0668 50.4391C55.1726 49.8077 55.171 49.1796 55.0705 48.4494L55.0658 48.4156L55.0567 48.3829C55.02 48.2516 55 48.1422 54.9781 48.0226C54.975 48.0056 54.9719 47.9884 54.9686 47.9708C54.9438 47.8365 54.9116 47.6719 54.8392 47.4998L54.7401 47.2642L54.7104 47.1937ZM54.6653 47.1392C54.6619 47.1333 54.663 47.1337 54.6657 47.1399L54.6653 47.1392ZM51.8701 48.8757L52.0678 48.8773C52.0699 48.8977 52.0702 48.9204 52.07 48.9643C52.0694 49.1128 52.0851 49.2803 52.0968 49.4047C52.1009 49.4483 52.1044 49.4866 52.1067 49.5169C52.1166 49.6522 52.1082 49.6989 52.1068 49.7069C52.1065 49.7084 52.1065 49.7086 52.1068 49.7077L52.0664 49.8013L52.0659 49.9035L52.0654 50.0209L52.0654 50.0209L52.0654 50.0209L52.0654 50.021L52.0654 50.021L52.0654 50.021L52.0654 50.0211L52.0654 50.0211L52.0654 50.0211L52.0654 50.0212L52.0654 50.0212L52.0654 50.0213L52.0654 50.0213L52.0654 50.0213L52.0654 50.0214L52.0654 50.0214L52.0654 50.0214L52.0654 50.0215L52.0654 50.0215L52.0654 50.0215L52.0654 50.0216L52.0654 50.0216L52.0654 50.0217L52.0654 50.0217L52.0654 50.0218L52.0654 50.0218L52.0654 50.0219L52.0654 50.0219L52.0654 50.022L52.0654 50.022L52.0654 50.022L52.0654 50.0221L52.0654 50.0221L52.0654 50.0221L52.0654 50.0222L52.0654 50.0222L52.0654 50.0222L52.0654 50.0223L52.0654 50.0223L52.0654 50.0223L52.0654 50.0224L52.0654 50.0224L52.0654 50.0224L52.0654 50.0225L52.0654 50.0225L52.0654 50.0226L52.0654 50.0226L52.0654 50.0226L52.0654 50.0227L52.0654 50.0227L52.0654 50.0228L52.0654 50.0228L52.0654 50.0229L52.0654 50.0229L52.0654 50.0229L52.0654 50.023L52.0654 50.023L52.0654 50.0231L52.0654 50.0231L52.0654 50.0232L52.0654 50.0232L52.0654 50.0233L52.0654 50.0233L52.0654 50.0234L52.0654 50.0234L52.0654 50.0235L52.0654 50.0236L52.0654 50.0236L52.0654 50.0237L52.0654 50.0237L52.0654 50.0238L52.0654 50.0238L52.0654 50.0239L52.0654 50.024L52.0654 50.024L52.0654 50.0241L52.0654 50.0241L52.0654 50.0242L52.0654 50.0243L52.0654 50.0243L52.0654 50.0244L52.0654 50.0245L52.0654 50.0245L52.0654 50.0246L52.0654 50.0247L52.0654 50.0247L52.0654 50.0248L52.0654 50.0249L52.0654 50.025L52.0654 50.025L52.0654 50.0251L52.0654 50.0252L52.0654 50.0253L52.0654 50.0253L52.0654 50.0254L52.0654 50.0255L52.0654 50.0256L52.0654 50.0257L52.0654 50.0257L52.0654 50.0258L52.0654 50.0259L52.0654 50.026L52.0654 50.0261L52.0654 50.0262L52.0654 50.0262L52.0654 50.0263L52.0654 50.0264L52.0654 50.0265L52.0654 50.0266L52.0654 50.0267L52.0654 50.0268L52.0654 50.0269L52.0654 50.027L52.0654 50.0271L52.0654 50.0272L52.0654 50.0273L52.0654 50.0274L52.0654 50.0275L52.0654 50.0276L52.0654 50.0277L52.0654 50.0278L52.0654 50.0279L52.0654 50.028L52.0654 50.0281L52.0654 50.0282L52.0654 50.0283L52.0654 50.0284L52.0654 50.0285L52.0654 50.0286L52.0654 50.0288L52.0654 50.0289L52.0654 50.029L52.0654 50.0291L52.0654 50.0292L52.0654 50.0293L52.0654 50.0295L52.0654 50.0296L52.0654 50.0297L52.0654 50.0298L52.0654 50.0299L52.0654 50.0301L52.0654 50.0302L52.0654 50.0303L52.0654 50.0305L52.0654 50.0306L52.0654 50.0307L52.0654 50.0308L52.0654 50.031L52.0654 50.0311L52.0654 50.0313L52.0653 50.0314L52.0653 50.0315L52.0653 50.0317L52.0653 50.0318L52.0653 50.032L52.0653 50.0321L52.0653 50.0322L52.0653 50.0324L52.0653 50.0325L52.0653 50.0327L52.0653 50.0328L52.0653 50.033L52.0653 50.0331L52.0653 50.0333L52.0653 50.0334L52.0653 50.0336L52.0653 50.0337L52.0653 50.0339L52.0653 50.0341L52.0653 50.0342L52.0653 50.0344L52.0653 50.0346L52.0653 50.0347L52.0653 50.0349L52.0653 50.0351L52.0653 50.0352L52.0653 50.0354L52.0653 50.0356L52.0653 50.0357L52.0653 50.0359L52.0653 50.0361L52.0653 50.0363L52.0653 50.0364L52.0653 50.0366L52.0653 50.0368L52.0653 50.037L52.0653 50.0372L52.0653 50.0373L52.0653 50.0375L52.0653 50.0377L52.0653 50.0379L52.0653 50.0381L52.0653 50.0383L52.0653 50.0385L52.0653 50.0387L52.0653 50.0389L52.0653 50.0391L52.0653 50.0393L52.0653 50.0395L52.0653 50.0397L52.0653 50.0399L52.0653 50.0401L52.0653 50.0403L52.0653 50.0405L52.0653 50.0407L52.0653 50.0409L52.0653 50.0411L52.0653 50.0413L52.0653 50.0416L52.0653 50.0418L52.0653 50.042L52.0653 50.0422L52.0653 50.0424L52.0653 50.0427L52.0653 50.0429L52.0653 50.0431L52.0653 50.0433L52.0653 50.0436L52.0653 50.0438L52.0653 50.044L52.0653 50.0443L52.0653 50.0445L52.0653 50.0447L52.0653 50.045L52.0653 50.0452L52.0653 50.0455L52.0653 50.0457L52.0653 50.0459L52.0653 50.0462L52.0653 50.0464L52.0653 50.0467L52.0653 50.0469L52.0653 50.0472L52.0653 50.0474L52.0653 50.0477L52.0653 50.048L52.0653 50.0482L52.0653 50.0485L52.0653 50.0487L52.0653 50.049L52.0653 50.0493L52.0653 50.0495L52.0653 50.0498L52.0653 50.0501L52.0653 50.0504L52.0653 50.0506L52.0653 50.0509L52.0653 50.0512L52.0653 50.0515L52.0653 50.0517L52.0653 50.052L52.0653 50.0523L52.0653 50.0526L52.0653 50.0529L52.0653 50.0532L52.0653 50.0535L52.0653 50.0538L52.0653 50.0541L52.0652 50.0544L52.0652 50.0547L52.0652 50.055L52.0652 50.0553L52.0652 50.0556L52.0652 50.0559L52.0652 50.0562L52.0652 50.0565L52.0652 50.0568L52.0652 50.0571L52.0652 50.0574L52.0652 50.0577L52.0652 50.0581L52.0652 50.0584L52.0652 50.0587L52.0652 50.059L52.0652 50.0594L52.0652 50.0597L52.0652 50.06L52.0652 50.0603L52.0652 50.0607L52.0652 50.061L52.0652 50.0614L52.0652 50.0617L52.0652 50.062L52.0652 50.0624L52.0652 50.0627L52.0652 50.0631L52.0652 50.0634L52.0652 50.0638L52.0652 50.0641L52.0652 50.0645L52.0652 50.0648L52.0652 50.0652L52.0652 50.0655L52.0652 50.0659L52.0652 50.0663L52.0652 50.0666L52.0652 50.067L52.0652 50.0674L52.0652 50.0678L52.0652 50.0681L52.0652 50.0685L52.0652 50.0689L52.0652 50.0693L52.0652 50.0696L52.0652 50.07L52.0652 50.0704L52.0652 50.0708L52.0652 50.0712L52.0652 50.0716L52.0652 50.072L52.0652 50.0724L52.0652 50.0728L52.0652 50.0732L52.0652 50.0736L52.0652 50.074L52.0652 50.0744L52.0652 50.0748L52.0652 50.0752L52.0652 50.0756L52.0652 50.076L52.0652 50.0764L52.0652 50.0769L52.0651 50.0773L52.0651 50.0777L52.0651 50.0781L52.0651 50.0786L52.0651 50.079L52.0651 50.0794L52.0651 50.0799L52.0651 50.0803L52.0651 50.0807L52.0651 50.0812L52.0651 50.0816L52.0651 50.0821L52.0651 50.0825L52.0651 50.0829C51.9815 50.4293 51.8288 50.695 51.5817 50.9816C51.5811 50.9823 51.5805 50.983 51.5799 50.9837L14.1396 93.2828L14.1281 93.2958L14.1175 93.3096C13.8042 93.7177 13.3967 93.8981 12.9984 93.8948C12.5976 93.8915 12.1575 93.7008 11.7936 93.2702C11.7929 93.2694 11.7922 93.2686 11.7915 93.2678L8.10964 88.781L8.09824 88.7671L8.08588 88.7541C7.7431 88.3924 7.55306 87.849 7.55557 87.2762C7.55808 86.7035 7.75288 86.1632 8.09881 85.8073L8.10681 85.7991L8.11441 85.7905L40.1231 49.6637L40.4081 49.342L40.1311 49.0111L8.94517 11.7708L8.93524 11.759L8.92461 11.7477C8.22226 11.0067 8.20139 9.65464 8.95728 8.77944L12.682 4.46673L12.6914 4.45587L12.7002 4.44449C13.0134 4.03638 13.421 3.85593 13.8192 3.85925C14.2207 3.86259 14.6617 4.05392 15.0261 4.48626L50.5896 46.6849L51.5783 47.9753L51.6371 48.052L51.7201 48.1014C51.724 48.1038 51.746 48.1181 51.7834 48.1802C51.8126 48.2287 51.8396 48.2859 51.8724 48.3615L51.8723 48.3757L51.8701 48.8757Z" fill="#EA7C69" stroke="#EA7C69"/>
</g>
<defs>
<filter id="filter0_ddd_554_1785" x="0.0400391" y="0.0991211" width="59.606" height="105.555" filterUnits="userSpaceOnUse" color-interpolation-filters="sRGB">
<feFlood flood-opacity="0" result="BackgroundImageFix"/>
<feColorMatrix in="SourceAlpha" type="matrix" values="0 0 0 0 0 0 0 0 0 0 0 0 0 0 0 0 0 0 127 0" result="hardAlpha"/>
<feOffset dy="4"/>
<feGaussianBlur stdDeviation="2"/>
<feComposite in2="hardAlpha" operator="out"/>
<feColorMatrix type="matrix" values="0 0 0 0 0 0 0 0 0 0 0 0 0 0 0 0 0 0 0.25 0"/>
<feBlend mode="normal" in2="BackgroundImageFix" result="effect1_dropShadow_554_1785"/>
<feColorMatrix in="SourceAlpha" type="matrix" values="0 0 0 0 0 0 0 0 0 0 0 0 0 0 0 0 0 0 127 0" result="hardAlpha"/>
<feOffset dy="4"/>
<feGaussianBlur stdDeviation="2"/>
<feComposite in2="hardAlpha" operator="out"/>
<feColorMatrix type="matrix" values="0 0 0 0 0 0 0 0 0 0 0 0 0 0 0 0 0 0 0.25 0"/>
<feBlend mode="normal" in2="effect1_dropShadow_554_1785" result="effect2_dropShadow_554_1785"/>
<feColorMatrix in="SourceAlpha" type="matrix" values="0 0 0 0 0 0 0 0 0 0 0 0 0 0 0 0 0 0 127 0" result="hardAlpha"/>
<feOffset dy="4"/>
<feGaussianBlur stdDeviation="2"/>
<feComposite in2="hardAlpha" operator="out"/>
<feColorMatrix type="matrix" values="0 0 0 0 0 0 0 0 0 0 0 0 0 0 0 0 0 0 0.25 0"/>
<feBlend mode="normal" in2="effect2_dropShadow_554_1785" result="effect3_dropShadow_554_1785"/>
<feBlend mode="normal" in="SourceGraphic" in2="effect3_dropShadow_554_1785" result="shape"/>
</filter>
</defs>
</svg>
