<svg width="32" height="32" viewBox="0 0 32 32" fill="none" xmlns="http://www.w3.org/2000/svg">
<path d="M16.0007 0C7.16374 0 0 7.16504 0 16.0007C0 24.8376 7.16374 32 16.0007 32C24.8376 32 32 24.8376 32 16.0007C32 7.16504 24.8369 0 16.0007 0ZM24.0604 12.7745C24.0689 12.9474 24.0721 13.1209 24.0721 13.2963C24.0721 18.6251 20.0162 24.7687 12.5997 24.7687C10.3229 24.7687 8.20273 24.1014 6.41845 22.9578C6.73424 22.9948 7.05458 23.0136 7.38012 23.0136C9.26966 23.0136 11.0084 22.3691 12.3879 21.2878C10.6238 21.2547 9.13515 20.0884 8.62183 18.4867C8.86745 18.5348 9.12021 18.5588 9.38012 18.5588C9.74789 18.5588 10.104 18.5107 10.4425 18.4178C8.59714 18.0474 7.20728 16.4165 7.20728 14.4646C7.20728 14.447 7.20728 14.4302 7.20793 14.4126C7.75114 14.7148 8.37297 14.896 9.03444 14.9175C7.95192 14.193 7.24042 12.9604 7.24042 11.5608C7.24042 10.822 7.43925 10.1287 7.78622 9.53346C9.77518 11.9727 12.7466 13.5783 16.0981 13.7459C16.0292 13.4516 15.9935 13.143 15.9935 12.8272C15.9935 10.601 17.7986 8.79532 20.026 8.79532C21.1858 8.79532 22.2333 9.28525 22.9688 10.0682C23.8876 9.88824 24.7505 9.55166 25.5296 9.08967C25.2274 10.0318 24.5887 10.822 23.7557 11.3203C24.5725 11.2229 25.3496 11.0058 26.0721 10.6855C25.5328 11.4958 24.8486 12.206 24.0604 12.7745Z" fill="black"/>
</svg>
