<svg width="58" height="105" viewBox="0 0 58 105" fill="none" xmlns="http://www.w3.org/2000/svg">
<g filter="url(#filter0_ddd_554_1599)">
<path d="M54.7772 46.8296L54.7479 46.795L54.7481 46.7607L54.708 46.666C54.4962 46.165 54.2736 45.7659 53.9336 45.3645L17.3151 2.12812C16.4227 1.07445 15.1852 0.535925 13.9419 0.525611C12.6878 0.515207 11.5705 1.0411 10.599 1.91086L10.5757 1.93174L10.5552 1.95538L6.83534 6.2411L6.83047 6.24672L6.82577 6.25248C5.0727 8.39867 5.04509 11.8177 6.80157 13.8916L36.3718 48.8059L6.10286 82.6448L6.10282 82.6447L6.09795 82.6503C4.22834 84.8043 4.21523 88.1065 5.95468 90.2885L5.95463 90.2885L5.95994 90.295L9.64117 94.7588L9.64114 94.7588L9.6454 94.7638C10.515 95.7905 11.7424 96.4724 13.0182 96.483C14.3674 96.4942 15.5066 95.9709 16.4034 94.9388C16.404 94.9381 16.4047 94.9373 16.4053 94.9366L53.7964 52.9021L53.7964 52.9021L53.8004 52.8975C54.3408 52.2749 54.7658 51.4285 54.9928 50.5794C55.1225 50.3742 55.1328 50.1712 55.1337 50.0578C55.2394 49.4298 55.2377 48.8052 55.1373 48.0792L55.1326 48.0453L55.1234 48.0124C55.0869 47.8822 55.0669 47.7737 55.0451 47.6549C55.042 47.638 55.0388 47.6208 55.0356 47.6034C55.0108 47.4698 54.9786 47.3059 54.906 47.1343L54.807 46.9002L54.7772 46.8296ZM54.7321 46.7755C54.7289 46.7698 54.7299 46.7702 54.7326 46.7763C54.7324 46.7761 54.7323 46.7758 54.7321 46.7755ZM51.9399 48.5067L52.1376 48.5084C52.1395 48.5277 52.1398 48.5499 52.1396 48.5917C52.1389 48.7395 52.1547 48.9065 52.1663 49.0302C52.1704 49.0734 52.174 49.1113 52.1762 49.1413C52.1858 49.2724 52.178 49.3189 52.1766 49.3276C52.1762 49.3295 52.1762 49.3296 52.1768 49.3284L52.1359 49.4223L52.1355 49.525L52.1349 49.6416L52.1349 49.6417L52.1349 49.6417L52.1349 49.6417L52.1349 49.6418L52.1349 49.6418L52.1349 49.6418L52.1349 49.6419L52.1349 49.6419L52.1349 49.6419L52.1349 49.642L52.1349 49.642L52.1349 49.642L52.1349 49.6421L52.1349 49.6421L52.1349 49.6422L52.1349 49.6422L52.1349 49.6422L52.1349 49.6423L52.1349 49.6423L52.1349 49.6424L52.1349 49.6424L52.1349 49.6425L52.1349 49.6425L52.1349 49.6426L52.1349 49.6426L52.1349 49.6427L52.1349 49.6427L52.1349 49.6428L52.1349 49.6428L52.1349 49.6428L52.1349 49.6429L52.1349 49.6429L52.1349 49.6429L52.1349 49.643L52.1349 49.643L52.1349 49.643L52.1349 49.6431L52.1349 49.6431L52.1349 49.6431L52.1349 49.6432L52.1349 49.6432L52.1349 49.6433L52.1349 49.6433L52.1349 49.6433L52.1349 49.6434L52.1349 49.6434L52.1349 49.6435L52.1349 49.6435L52.1349 49.6435L52.1349 49.6436L52.1349 49.6436L52.1349 49.6437L52.1349 49.6437L52.1349 49.6438L52.1349 49.6438L52.1349 49.6439L52.1349 49.6439L52.1349 49.644L52.1349 49.644L52.1349 49.6441L52.1349 49.6441L52.1349 49.6442L52.1349 49.6442L52.1349 49.6443L52.1349 49.6443L52.1349 49.6444L52.1349 49.6445L52.1349 49.6445L52.1349 49.6446L52.1349 49.6446L52.1349 49.6447L52.1349 49.6447L52.1349 49.6448L52.1349 49.6449L52.1349 49.6449L52.1349 49.645L52.1349 49.6451L52.1349 49.6451L52.1349 49.6452L52.1349 49.6453L52.1349 49.6453L52.1349 49.6454L52.1349 49.6455L52.1349 49.6455L52.1349 49.6456L52.1349 49.6457L52.1349 49.6458L52.1349 49.6458L52.1349 49.6459L52.1349 49.646L52.1349 49.6461L52.1349 49.6461L52.1349 49.6462L52.1349 49.6463L52.1349 49.6464L52.1349 49.6465L52.1349 49.6465L52.1349 49.6466L52.1349 49.6467L52.1349 49.6468L52.1349 49.6469L52.1349 49.647L52.1349 49.6471L52.1349 49.6471L52.1349 49.6472L52.1349 49.6473L52.1349 49.6474L52.1349 49.6475L52.1349 49.6476L52.1349 49.6477L52.1349 49.6478L52.1349 49.6479L52.1349 49.648L52.1349 49.6481L52.1349 49.6482L52.1349 49.6483L52.1349 49.6484L52.1349 49.6485L52.1349 49.6486L52.1349 49.6487L52.1349 49.6488L52.1349 49.6489L52.1349 49.649L52.1349 49.6491L52.1349 49.6492L52.1349 49.6493L52.1349 49.6495L52.1349 49.6496L52.1349 49.6497L52.1349 49.6498L52.1349 49.6499L52.1349 49.65L52.1349 49.6502L52.1349 49.6503L52.1349 49.6504L52.1349 49.6505L52.1349 49.6506L52.1349 49.6508L52.1349 49.6509L52.1349 49.651L52.1349 49.6511L52.1349 49.6513L52.1349 49.6514L52.1349 49.6515L52.1349 49.6517L52.1349 49.6518L52.1349 49.6519L52.1349 49.6521L52.1349 49.6522L52.1349 49.6523L52.1349 49.6525L52.1349 49.6526L52.1349 49.6528L52.1349 49.6529L52.1349 49.6531L52.1349 49.6532L52.1349 49.6534L52.1349 49.6535L52.1349 49.6536L52.1349 49.6538L52.1349 49.654L52.1349 49.6541L52.1349 49.6543L52.1349 49.6544L52.1349 49.6546L52.1349 49.6547L52.1349 49.6549L52.1349 49.6551L52.1349 49.6552L52.1349 49.6554L52.1349 49.6555L52.1349 49.6557L52.1349 49.6559L52.1349 49.656L52.1349 49.6562L52.1349 49.6564L52.1349 49.6566L52.1349 49.6567L52.1349 49.6569L52.1349 49.6571L52.1349 49.6573L52.1349 49.6574L52.1349 49.6576L52.1349 49.6578L52.1349 49.658L52.1349 49.6582L52.1349 49.6584L52.1349 49.6586L52.1349 49.6587L52.1349 49.6589L52.1349 49.6591L52.1349 49.6593L52.1349 49.6595L52.1349 49.6597L52.1349 49.6599L52.1349 49.6601L52.1349 49.6603L52.1349 49.6605L52.1349 49.6607L52.1349 49.6609L52.1349 49.6611L52.1349 49.6613L52.1349 49.6615L52.1349 49.6618L52.1349 49.662L52.1349 49.6622L52.1349 49.6624L52.1349 49.6626L52.1349 49.6628L52.1349 49.6631L52.1348 49.6633L52.1348 49.6635L52.1348 49.6637L52.1348 49.6639L52.1348 49.6642L52.1348 49.6644L52.1348 49.6646L52.1348 49.6649L52.1348 49.6651L52.1348 49.6653L52.1348 49.6656L52.1348 49.6658L52.1348 49.6661L52.1348 49.6663L52.1348 49.6665L52.1348 49.6668L52.1348 49.667L52.1348 49.6673L52.1348 49.6675L52.1348 49.6678L52.1348 49.668L52.1348 49.6683L52.1348 49.6685L52.1348 49.6688L52.1348 49.6691L52.1348 49.6693L52.1348 49.6696L52.1348 49.6699L52.1348 49.6701L52.1348 49.6704L52.1348 49.6707L52.1348 49.6709L52.1348 49.6712L52.1348 49.6715L52.1348 49.6717L52.1348 49.672L52.1348 49.6723L52.1348 49.6726L52.1348 49.6729L52.1348 49.6732L52.1348 49.6734L52.1348 49.6737L52.1348 49.674L52.1348 49.6743L52.1348 49.6746L52.1348 49.6749L52.1348 49.6752L52.1348 49.6755L52.1348 49.6758L52.1348 49.6761L52.1348 49.6764L52.1348 49.6767L52.1348 49.677L52.1348 49.6773L52.1348 49.6776L52.1348 49.6779L52.1348 49.6783L52.1348 49.6786L52.1348 49.6789L52.1348 49.6792L52.1348 49.6795L52.1348 49.6799L52.1348 49.6802L52.1348 49.6805L52.1348 49.6808L52.1348 49.6812L52.1348 49.6815L52.1348 49.6819L52.1348 49.6822L52.1348 49.6825L52.1348 49.6829L52.1348 49.6832L52.1348 49.6836L52.1348 49.6839L52.1348 49.6842L52.1348 49.6846L52.1348 49.6849L52.1348 49.6853L52.1348 49.6857L52.1347 49.686L52.1347 49.6864L52.1347 49.6867L52.1347 49.6871L52.1347 49.6875L52.1347 49.6878L52.1347 49.6882L52.1347 49.6886L52.1347 49.689L52.1347 49.6893L52.1347 49.6897L52.1347 49.6901L52.1347 49.6905L52.1347 49.6909L52.1347 49.6912L52.1347 49.6916L52.1347 49.692L52.1347 49.6924L52.1347 49.6928L52.1347 49.6932L52.1347 49.6936L52.1347 49.694L52.1347 49.6944L52.1347 49.6948L52.1347 49.6952L52.1347 49.6956L52.1347 49.696L52.1347 49.6964L52.1347 49.6968L52.1347 49.6973L52.1347 49.6977L52.1347 49.6981L52.1347 49.6985L52.1347 49.6989L52.1347 49.6994L52.1347 49.6998L52.1347 49.7002L52.1347 49.7007L52.1347 49.7011L52.1347 49.7015L52.1347 49.702L52.1347 49.7024L52.1347 49.7026C52.0514 50.0456 51.8993 50.309 51.6529 50.5933C51.6523 50.594 51.6516 50.5947 51.651 50.5955L14.26 92.63L14.2484 92.643L14.2378 92.6567C13.9255 93.0616 13.5185 93.2413 13.12 93.238C12.719 93.2347 12.2795 93.0449 11.9164 92.6174C11.9158 92.6166 11.9151 92.6159 11.9144 92.6151L8.23742 88.1563L8.22598 88.1425L8.21358 88.1294C7.87181 87.7706 7.6825 87.2317 7.68501 86.6639C7.68751 86.096 7.88157 85.5603 8.22648 85.2072L8.2345 85.199L8.24213 85.1904L40.2087 49.2896L40.496 48.967L40.2167 48.6352L9.07214 11.6274L9.06218 11.6156L9.05151 11.6044C8.35155 10.8695 8.33052 9.529 9.08421 8.66065L12.8041 4.37492L12.8135 4.36408L12.8223 4.3527C13.1346 3.94783 13.5415 3.76811 13.94 3.77142C14.3417 3.77475 14.7822 3.96524 15.1456 4.39435L50.662 46.3294L51.6494 47.6117L51.7083 47.6882L51.7913 47.7374C51.7951 47.7397 51.8169 47.7537 51.854 47.8151C51.8829 47.8628 51.9097 47.9192 51.9422 47.9938L51.9421 48.0067L51.9399 48.5067Z" fill="white" stroke="white"/>
</g>
<defs>
<filter id="filter0_ddd_554_1599" x="0.172363" y="0.0254517" width="59.5405" height="104.958" filterUnits="userSpaceOnUse" color-interpolation-filters="sRGB">
<feFlood flood-opacity="0" result="BackgroundImageFix"/>
<feColorMatrix in="SourceAlpha" type="matrix" values="0 0 0 0 0 0 0 0 0 0 0 0 0 0 0 0 0 0 127 0" result="hardAlpha"/>
<feOffset dy="4"/>
<feGaussianBlur stdDeviation="2"/>
<feComposite in2="hardAlpha" operator="out"/>
<feColorMatrix type="matrix" values="0 0 0 0 0 0 0 0 0 0 0 0 0 0 0 0 0 0 0.25 0"/>
<feBlend mode="normal" in2="BackgroundImageFix" result="effect1_dropShadow_554_1599"/>
<feColorMatrix in="SourceAlpha" type="matrix" values="0 0 0 0 0 0 0 0 0 0 0 0 0 0 0 0 0 0 127 0" result="hardAlpha"/>
<feOffset dy="4"/>
<feGaussianBlur stdDeviation="2"/>
<feComposite in2="hardAlpha" operator="out"/>
<feColorMatrix type="matrix" values="0 0 0 0 0 0 0 0 0 0 0 0 0 0 0 0 0 0 0.25 0"/>
<feBlend mode="normal" in2="effect1_dropShadow_554_1599" result="effect2_dropShadow_554_1599"/>
<feColorMatrix in="SourceAlpha" type="matrix" values="0 0 0 0 0 0 0 0 0 0 0 0 0 0 0 0 0 0 127 0" result="hardAlpha"/>
<feOffset dy="4"/>
<feGaussianBlur stdDeviation="2"/>
<feComposite in2="hardAlpha" operator="out"/>
<feColorMatrix type="matrix" values="0 0 0 0 0 0 0 0 0 0 0 0 0 0 0 0 0 0 0.25 0"/>
<feBlend mode="normal" in2="effect2_dropShadow_554_1599" result="effect3_dropShadow_554_1599"/>
<feBlend mode="normal" in="SourceGraphic" in2="effect3_dropShadow_554_1599" result="shape"/>
</filter>
</defs>
</svg>
