<svg width="60" height="106" viewBox="0 0 60 106" fill="none" xmlns="http://www.w3.org/2000/svg">
<g filter="url(#filter0_ddd_554_1597)">
<path d="M4.94487 51.469L4.97437 51.5034V51.5379L5.01467 51.6321C5.22831 52.1316 5.45231 52.529 5.79352 52.9279L42.545 95.8859C43.4406 96.9328 44.6789 97.4617 45.921 97.4617C47.1737 97.4617 48.2872 96.9259 49.2533 96.0476L49.2765 96.0265L49.2969 96.0026L52.992 91.6835L52.9969 91.6778L53.0016 91.672C54.7422 89.5103 54.7547 86.0897 52.992 84.0294L23.3139 49.3392L53.3866 15.2284L53.3867 15.2285L53.3915 15.2228C55.2485 13.0523 55.247 9.74874 53.5009 7.58018L53.501 7.58014L53.4956 7.57375L49.8005 3.13786L49.8005 3.13783L49.7963 3.13284C48.9236 2.11276 47.6948 1.44034 46.4203 1.44034C45.0725 1.44034 43.9372 1.97365 43.0463 3.01375C43.0457 3.01454 43.045 3.01532 43.0443 3.0161L5.89735 45.3859L5.89733 45.3859L5.89339 45.3905C5.35652 46.018 4.93599 46.8684 4.71312 47.7197C4.58458 47.926 4.57524 48.1292 4.57484 48.2425C4.47207 48.8716 4.47646 49.4965 4.57991 50.222L4.58472 50.2557L4.59407 50.2885C4.63115 50.4186 4.65154 50.527 4.67387 50.6457C4.67704 50.6626 4.68026 50.6797 4.68357 50.6971C4.70893 50.8306 4.74181 50.9943 4.81493 51.1652L4.9148 51.3987L4.94487 51.469ZM4.99011 51.5227C4.99339 51.5284 4.99235 51.528 4.98965 51.5219C4.98981 51.5222 4.98997 51.5224 4.99011 51.5227ZM7.772 49.7682H7.5746C7.57263 49.7487 7.57226 49.7264 7.57226 49.6845C7.57226 49.5367 7.55582 49.3698 7.54364 49.2462C7.53938 49.2029 7.53564 49.165 7.53331 49.135C7.52305 49.0031 7.53075 48.9565 7.53216 48.948C7.53246 48.9462 7.53248 48.9461 7.53197 48.9473L7.57226 48.8531V48.7506V48.6339V48.6338V48.6338V48.6338V48.6338V48.6337V48.6337V48.6337V48.6336V48.6336V48.6335V48.6335V48.6335V48.6334V48.6334V48.6334V48.6333V48.6333V48.6333V48.6332V48.6332V48.6331V48.6331V48.633V48.633V48.6329V48.6329V48.6328V48.6328V48.6327V48.6327V48.6327V48.6327V48.6326V48.6326V48.6325V48.6325V48.6325V48.6324V48.6324V48.6324V48.6323V48.6323V48.6323V48.6322V48.6322V48.6321V48.6321V48.632V48.632V48.632V48.6319V48.6319V48.6318V48.6318V48.6317V48.6317V48.6316V48.6316V48.6315V48.6315V48.6314V48.6314V48.6313V48.6313V48.6312V48.6312V48.6311V48.6311V48.631V48.6309V48.6309V48.6308V48.6308V48.6307V48.6306V48.6306V48.6305V48.6304V48.6304V48.6303V48.6302V48.6302V48.6301V48.63V48.63V48.6299V48.6298V48.6297V48.6297V48.6296V48.6295V48.6294V48.6294V48.6293V48.6292V48.6291V48.6291V48.629V48.6289V48.6288V48.6287V48.6286V48.6285V48.6285V48.6284V48.6283V48.6282V48.6281V48.628V48.6279V48.6278V48.6277V48.6276V48.6275V48.6274V48.6273V48.6272V48.6271V48.627V48.6269V48.6268V48.6267V48.6266V48.6265V48.6264V48.6263V48.6262V48.626V48.6259V48.6258V48.6257V48.6256V48.6255V48.6254V48.6252V48.6251V48.625V48.6249V48.6247V48.6246V48.6245V48.6244V48.6242V48.6241V48.624V48.6238V48.6237V48.6236V48.6234V48.6233V48.6232V48.623V48.6229V48.6227V48.6226V48.6224V48.6223V48.6222V48.622V48.6218V48.6217V48.6215V48.6214V48.6212V48.6211V48.6209V48.6208V48.6206V48.6204V48.6203V48.6201V48.62V48.6198V48.6196V48.6195V48.6193V48.6191V48.6189V48.6188V48.6186V48.6184V48.6182V48.6181V48.6179V48.6177V48.6175V48.6173V48.6171V48.6169V48.6168V48.6166V48.6164V48.6162V48.616V48.6158V48.6156V48.6154V48.6152V48.615V48.6148V48.6146V48.6144V48.6142V48.614V48.6137V48.6135V48.6133V48.6131V48.6129V48.6127V48.6124V48.6122V48.612V48.6118V48.6115V48.6113V48.6111V48.6109V48.6106V48.6104V48.6102V48.6099V48.6097V48.6094V48.6092V48.609V48.6087V48.6085V48.6082V48.608V48.6077V48.6075V48.6072V48.6069V48.6067V48.6064V48.6062V48.6059V48.6056V48.6054V48.6051V48.6048V48.6046V48.6043V48.604V48.6037V48.6035V48.6032V48.6029V48.6026V48.6023V48.602V48.6018V48.6015V48.6012V48.6009V48.6006V48.6003V48.6V48.5997V48.5994V48.5991V48.5988V48.5985V48.5982V48.5978V48.5975V48.5972V48.5969V48.5966V48.5963V48.5959V48.5956V48.5953V48.595V48.5946V48.5943V48.594V48.5936V48.5933V48.593V48.5926V48.5923V48.5919V48.5916V48.5912V48.5909V48.5905V48.5902V48.5898V48.5895V48.5891V48.5887V48.5884V48.588V48.5876V48.5873V48.5869V48.5865V48.5862V48.5858V48.5854V48.585V48.5846V48.5842V48.5839V48.5835V48.5831V48.5827V48.5823V48.5819V48.5815V48.5811V48.5807V48.5803V48.5799V48.5795V48.579V48.5786V48.5782V48.5778V48.5774V48.577V48.5765V48.5761V48.5757V48.5752V48.5748V48.5744V48.5739V48.5735V48.5731V48.5727C7.65395 48.2285 7.80473 47.9636 8.04947 47.6771C8.05011 47.6764 8.05076 47.6756 8.0514 47.6748L45.1984 5.30504L45.2098 5.29194L45.2204 5.27808C45.5305 4.87032 45.9357 4.68746 46.3329 4.68746C46.7326 4.68746 47.172 4.87342 47.5364 5.29816C47.5371 5.29892 47.5377 5.29969 47.5384 5.30046L51.2293 9.73132L51.2407 9.7451L51.2532 9.75803C51.596 10.1142 51.7875 10.6521 51.7875 11.2207C51.7875 11.7892 51.596 12.3271 51.2532 12.6833L51.2452 12.6916L51.2376 12.7002L19.4796 48.8877L19.1947 49.2123L19.4744 49.5414L50.7331 86.3125L50.7431 86.3243L50.7538 86.3354C51.4562 87.0651 51.483 88.4071 50.7342 89.2824L47.039 93.6016L47.0297 93.6125L47.021 93.6239C46.7109 94.0317 46.3057 94.2145 45.9085 94.2145C45.508 94.2145 45.0678 94.0279 44.703 93.6016L9.05768 51.9365L8.06615 50.6616L8.00698 50.5855L7.92376 50.5369C7.92011 50.5347 7.89829 50.5209 7.86093 50.4598C7.83181 50.4121 7.80483 50.3559 7.772 50.2814V50.2682V49.7682Z" fill="white" stroke="white"/>
</g>
<defs>
<filter id="filter0_ddd_554_1597" x="0" y="0.940338" width="59.2979" height="105.021" filterUnits="userSpaceOnUse" color-interpolation-filters="sRGB">
<feFlood flood-opacity="0" result="BackgroundImageFix"/>
<feColorMatrix in="SourceAlpha" type="matrix" values="0 0 0 0 0 0 0 0 0 0 0 0 0 0 0 0 0 0 127 0" result="hardAlpha"/>
<feOffset dy="4"/>
<feGaussianBlur stdDeviation="2"/>
<feComposite in2="hardAlpha" operator="out"/>
<feColorMatrix type="matrix" values="0 0 0 0 0 0 0 0 0 0 0 0 0 0 0 0 0 0 0.25 0"/>
<feBlend mode="normal" in2="BackgroundImageFix" result="effect1_dropShadow_554_1597"/>
<feColorMatrix in="SourceAlpha" type="matrix" values="0 0 0 0 0 0 0 0 0 0 0 0 0 0 0 0 0 0 127 0" result="hardAlpha"/>
<feOffset dy="4"/>
<feGaussianBlur stdDeviation="2"/>
<feComposite in2="hardAlpha" operator="out"/>
<feColorMatrix type="matrix" values="0 0 0 0 0 0 0 0 0 0 0 0 0 0 0 0 0 0 0.25 0"/>
<feBlend mode="normal" in2="effect1_dropShadow_554_1597" result="effect2_dropShadow_554_1597"/>
<feColorMatrix in="SourceAlpha" type="matrix" values="0 0 0 0 0 0 0 0 0 0 0 0 0 0 0 0 0 0 127 0" result="hardAlpha"/>
<feOffset dy="4"/>
<feGaussianBlur stdDeviation="2"/>
<feComposite in2="hardAlpha" operator="out"/>
<feColorMatrix type="matrix" values="0 0 0 0 0 0 0 0 0 0 0 0 0 0 0 0 0 0 0.25 0"/>
<feBlend mode="normal" in2="effect2_dropShadow_554_1597" result="effect3_dropShadow_554_1597"/>
<feBlend mode="normal" in="SourceGraphic" in2="effect3_dropShadow_554_1597" result="shape"/>
</filter>
</defs>
</svg>
